Coordinates
version=1
nRows=43
nColumns=12
inDegrees=yes

Units are S.I. units (second, meters, Newtons, ...)
Angles are in degrees

endheader
time	SC_y	SC_z	SC_x	AC_y	AC_z	AC_x	GH_y	GH_z	GH_yy	EL_x	PS_y
       0.0              -28.17          24.66          29.33          61.63         0.1751         -15.63         -143.9          52.96          44.38          127.1           21.3
  0.004906              -28.17          24.65          29.33          61.63         0.1747         -15.63         -143.9          52.95          44.36          127.1           21.3
  0.009812              -28.18          24.65          29.34          61.62         0.1742         -15.63         -143.8          52.95          44.33          127.1           21.3
   0.01472              -28.18          24.65          29.34          61.62         0.1738         -15.63         -143.8          52.95          44.31          127.1           21.3
   0.01962              -28.19          24.64          29.35          61.61         0.1733         -15.62         -143.8          52.95          44.28          127.1           21.3
   0.02453              -28.19          24.64          29.36          61.61         0.1728         -15.62         -143.7          52.94          44.25          127.1          21.31
   0.02943               -28.2          24.64          29.37           61.6         0.1723         -15.62         -143.7          52.94          44.22          127.1          21.31
   0.03434               -28.2          24.63          29.38           61.6         0.1717         -15.61         -143.6          52.94          44.19          127.1          21.31
   0.03925              -28.21          24.63          29.39          61.59         0.1711         -15.61         -143.5          52.94          44.16          127.1          21.31
   0.04415              -28.21          24.62           29.4          61.58         0.1704         -15.61         -143.5          52.93          44.12          127.1          21.31
   0.04906              -28.22          24.62          29.41          61.58         0.1697          -15.6         -143.4          52.93          44.08          127.1          21.31
   0.05396              -28.23          24.61          29.42          61.57          0.169          -15.6         -143.3          52.93          44.04          127.1          21.32
   0.05887              -28.23          24.61          29.43          61.56         0.1681         -15.59         -143.3          52.92          43.99          127.1          21.32
   0.06378              -28.24           24.6          29.44          61.55         0.1672         -15.59         -143.2          52.92          43.94          127.1          21.32
   0.06868              -28.25           24.6          29.46          61.54         0.1663         -15.58         -143.1          52.91          43.89          127.1          21.32
   0.07359              -28.26          24.59          29.47          61.53         0.1652         -15.58         -143.0          52.91          43.83          127.1          21.33
   0.07849              -28.27          24.58          29.49          61.52         0.1641         -15.57         -142.9           52.9          43.76          127.1          21.33
    0.0834              -28.28          24.57          29.51          61.51         0.1629         -15.56         -142.7           52.9           43.7          127.1          21.33
    0.0883              -28.29          24.57          29.53           61.5         0.1615         -15.55         -142.6          52.89          43.62          127.1          21.34
   0.09321              -28.31          24.56          29.55          61.48           0.16         -15.55         -142.5          52.88          43.54          127.1          21.34
   0.09812              -28.32          24.55          29.58          61.47         0.1584         -15.54         -142.3          52.87          43.45          127.1          21.35
     0.103              -28.34          24.53          29.61          61.45         0.1566         -15.53         -142.1          52.87          43.35          127.1          21.35
    0.1079              -28.36          24.52          29.64          61.43         0.1546         -15.52         -142.0          52.86          43.24          127.1          21.36
    0.1128              -28.38          24.51          29.67          61.41         0.1524          -15.5         -141.7          52.85          43.11          127.1          21.36
    0.1177               -28.4          24.49          29.71          61.38           0.15         -15.49         -141.5          52.83          42.98          127.1          21.37
    0.1226              -28.42          24.47          29.75          61.36         0.1473         -15.47         -141.2          52.82          42.83          127.1          21.38
    0.1276              -28.45          24.45          29.79          61.33         0.1442         -15.46         -141.0          52.81          42.66          127.1          21.39
    0.1325              -28.48          24.43          29.85          61.29         0.1408         -15.44         -140.6          52.79          42.46          127.1           21.4
    0.1374              -28.52           24.4          29.91          61.25          0.137         -15.41         -140.3          52.77          42.25          127.1          21.41
    0.1423              -28.56          24.37          29.97          61.21         0.1326         -15.39         -139.8          52.75           42.0          127.1          21.42
    0.1472               -28.6          24.34          30.05          61.16         0.1276         -15.36         -139.4          52.72          41.72          127.1          21.43
    0.1521              -28.66           24.3          30.14           61.1         0.1218         -15.33         -138.8           52.7           41.4          127.1          21.45
     0.157              -28.72          24.26          30.24          61.04         0.1152         -15.29         -138.2          52.66          41.03          127.1          21.47
    0.1619              -28.79          24.21          30.35          60.96         0.1074         -15.25         -137.4          52.63           40.6          127.1          21.49
    0.1668              -28.87          24.15          30.49          60.87        0.09842          -15.2         -136.5          52.58          40.09          127.1          21.51
    0.1717              -28.97          24.08          30.65          60.77        0.08778         -15.13         -135.5          52.53           39.5          127.1          21.54
    0.1766              -29.08          23.99          30.85          60.64        0.07513         -15.06         -134.3          52.47          38.79          127.1          21.58
    0.1815              -29.22          23.89          31.08          60.49        0.05997         -14.98         -132.8           52.4          37.94          127.1          21.62
    0.1864              -29.39          23.77          31.36          60.31        0.04163         -14.87         -131.1          52.31          36.92          127.1          21.67
    0.1913              -29.59          23.63           31.7          60.09        0.01922         -14.74         -128.9           52.2          35.67          127.1          21.74
    0.1962              -29.85          23.44          32.12          59.81      -0.008432         -14.59         -126.3          52.07          34.12          127.1          21.81
    0.2011              -30.16          23.22          32.64          59.47       -0.04292         -14.39         -122.9           51.9          32.19          127.1          21.91
     0.206              -30.56          22.93          33.31          59.04       -0.08636         -14.14         -118.8          51.69          29.77          127.1          22.03
